<svg xmlns="http://www.w3.org/2000/svg" viewBox="-16 -26 236 236" width="236" height="236">
<defs><linearGradient id="g2a2438" x1="0" y1="0" x2="0.35" y2="1"><stop offset="0" stop-color="#7b757b"/><stop offset="1" stop-color="#2a2438"/></linearGradient><linearGradient id="mf2c23a" x1="0" y1="0" x2="0.4" y2="1"><stop offset="0" stop-color="#fbe8b4"/><stop offset="0.4" stop-color="#f4ca54"/><stop offset="1" stop-color="#cda03b"/></linearGradient><linearGradient id="mc8fff0" x1="0" y1="0" x2="0.4" y2="1"><stop offset="0" stop-color="#effaea"/><stop offset="0.4" stop-color="#d0feef"/><stop offset="1" stop-color="#acd1cd"/></linearGradient><linearGradient id="g5a4a8a" x1="0" y1="0" x2="0.35" y2="1"><stop offset="0" stop-color="#998cae"/><stop offset="1" stop-color="#5a4a8a"/></linearGradient><linearGradient id="m3a3448" x1="0" y1="0" x2="0.4" y2="1"><stop offset="0" stop-color="#c4bdb8"/><stop offset="0.4" stop-color="#585160"/><stop offset="1" stop-color="#3a2f46"/></linearGradient><linearGradient id="m2a2438" x1="0" y1="0" x2="0.4" y2="1"><stop offset="0" stop-color="#bfb8b3"/><stop offset="0.4" stop-color="#4a4452"/><stop offset="1" stop-color="#2d223a"/></linearGradient><radialGradient id="i4ac87a" cx="0.45" cy="0.68" r="0.62"><stop offset="0" stop-color="#aee2b7"/><stop offset="0.6" stop-color="#4ac87a"/><stop offset="1" stop-color="#437a60"/></radialGradient></defs>
<g stroke="#4a2410" stroke-width="3.6" stroke-linejoin="round" stroke-linecap="round">
<path d="M74 120 C48 90 24 80 4 84 C14 104 30 118 56 132 Z M142 120 C168 90 192 80 212 84 C202 104 186 118 160 132 Z" fill="url(#g2a2438)" /><path d="M76 126 C58 156 52 186 58 206 L158 206 C164 186 158 156 140 126 Z" fill="url(#g5a4a8a)" /><ellipse cx="108" cy="162" rx="32" ry="30" fill="url(#m3a3448)" /><path d="M90 144 C100 138 116 138 126 144 L122 168 L94 168 Z" fill="url(#mf2c23a)" /><path d="M94 188 L90 204 L106 204 L104 188 Z M112 188 L110 204 L126 204 L122 188 Z" fill="url(#m3a3448)" /><path d="M80 150 C66 152 58 158 54 166" fill="none" stroke="#4a2410" stroke-width="13"/><path d="M80 150 C66 152 58 158 54 166" fill="none" stroke="#3a3448" stroke-width="7"/><path d="M136 150 C150 152 158 158 162 166" fill="none" stroke="#4a2410" stroke-width="13"/><path d="M136 150 C150 152 158 158 162 166" fill="none" stroke="#3a3448" stroke-width="7"/><ellipse cx="108" cy="82" rx="62" ry="56" fill="url(#m3a3448)" /><path d="M52 68 C64 40 86 28 108 28 C132 28 154 42 164 68 L156 74 L60 74 Z" fill="url(#m2a2438)" /><path d="M60 78 L156 78 L150 102 L66 102 Z" fill="#0a0a14" /><ellipse cx="90" cy="90" rx="10" ry="9" fill="#ffffff"/><ellipse cx="91.8" cy="90.9" rx="8" ry="7.2" fill="url(#i4ac87a)" stroke="none"/><ellipse cx="92.6" cy="91.44" rx="4.2" ry="4.5" fill="#101014" stroke="none"/><ellipse cx="87.2" cy="87.3" rx="3" ry="3" fill="#ffffff" stroke="none"/><ellipse cx="94.2" cy="93.78" rx="1.4000000000000001" ry="1.4000000000000001" fill="#ffffff" stroke="none"/><ellipse cx="90" cy="90" rx="10" ry="9" fill="none"/><ellipse cx="126" cy="90" rx="10" ry="9" fill="#ffffff"/><ellipse cx="127.8" cy="90.9" rx="8" ry="7.2" fill="url(#i4ac87a)" stroke="none"/><ellipse cx="128.6" cy="91.44" rx="4.2" ry="4.5" fill="#101014" stroke="none"/><ellipse cx="123.2" cy="87.3" rx="3" ry="3" fill="#ffffff" stroke="none"/><ellipse cx="130.2" cy="93.78" rx="1.4000000000000001" ry="1.4000000000000001" fill="#ffffff" stroke="none"/><ellipse cx="126" cy="90" rx="10" ry="9" fill="none"/><path d="M100 116 C104 120 112 120 116 116" fill="none" stroke-width="3"/><ellipse cx="74" cy="112" rx="9" ry="5" fill="#ff7a8a" stroke="none" opacity="0.45"/><ellipse cx="142" cy="112" rx="9" ry="5" fill="#ff7a8a" stroke="none" opacity="0.45"/><path d="M56 52 C44 30 44 10 54 -8 C62 12 70 26 80 36 Z M160 52 C172 30 172 10 162 -8 C154 12 146 26 136 36 Z" fill="url(#mf2c23a)" /><path d="M98 30 L108 0 L118 30 Z" fill="url(#mf2c23a)" /><path d="M182.2960045277912 147.91448002113017 L207.74480135833736 30.442344006339052 L207.96597336150688 22.245327296278372 L204.25519864166264 29.557655993660948 L170.66399547220877 144.96551997886982 Z" fill="url(#mc8fff0)" /><path d="M170 172 L176.48 146.44" fill="none" stroke="#4a2410" stroke-width="9"/><path d="M170 172 L176.48 146.44" fill="none" stroke="#f2c23a" stroke-width="3"/><path d="M188.11200905558243 149.38896004226032 L164.84799094441755 143.49103995773967" fill="none" stroke="#4a2410" stroke-width="8"/><path d="M188.11200905558243 149.38896004226032 L164.84799094441755 143.49103995773967" fill="none" stroke="#f2c23a" stroke-width="3.5"/><path d="M200 60 L212 30 L218 62 Z" fill="#5af0a0" stroke="none" opacity="0.6"/>
</g>
</svg>
