<svg xmlns="http://www.w3.org/2000/svg" viewBox="0 -24 222 230" width="222" height="230">
<defs><linearGradient id="gb8763a" x1="0" y1="0" x2="0.35" y2="1"><stop offset="0" stop-color="#d3a77c"/><stop offset="1" stop-color="#b8763a"/></linearGradient><linearGradient id="ge0a456" x1="0" y1="0" x2="0.35" y2="1"><stop offset="0" stop-color="#ecc48d"/><stop offset="1" stop-color="#e0a456"/></linearGradient><linearGradient id="gfbe7c2" x1="0" y1="0" x2="0.35" y2="1"><stop offset="0" stop-color="#fdedd0"/><stop offset="1" stop-color="#fbe7c2"/></linearGradient><linearGradient id="ge9bd82" x1="0" y1="0" x2="0.35" y2="1"><stop offset="0" stop-color="#f1d3a9"/><stop offset="1" stop-color="#e9bd82"/></linearGradient><radialGradient id="i2fb4a4" cx="0.45" cy="0.68" r="0.62"><stop offset="0" stop-color="#a1d9c9"/><stop offset="0.6" stop-color="#2fb4a4"/><stop offset="1" stop-color="#346f77"/></radialGradient></defs>
<g stroke="#4a2410" stroke-width="3.6" stroke-linejoin="round" stroke-linecap="round">
<path d="M68 176 C52 182 36 182 26 174 C38 168 50 164 62 160 Z" fill="url(#gb8763a)" /><ellipse cx="84" cy="194" rx="16" ry="9" fill="url(#ge0a456)" /><ellipse cx="130" cy="194" rx="16" ry="9" fill="url(#ge0a456)" /><path d="M97.0 198.9 Q102.8 199.1 105.5 198.7 Q102.4 195.7 99.0 193.1 Z" fill="#ffffff" stroke-width="2.4"/><path d="M91.7 202.3 Q95.5 205.8 97.5 207.1 Q97.1 203.2 96.3 199.7 Z" fill="#ffffff" stroke-width="2.4"/><path d="M143.0 198.9 Q148.8 199.1 151.5 198.7 Q148.4 195.7 145.0 193.1 Z" fill="#ffffff" stroke-width="2.4"/><path d="M137.7 202.3 Q141.5 205.8 143.5 207.1 Q143.1 203.2 142.3 199.7 Z" fill="#ffffff" stroke-width="2.4"/><ellipse cx="106" cy="160" rx="40" ry="32" fill="url(#ge0a456)" /><path d="M68 160 C66 138 82 124 102 124 C88 136 84 152 86 168 C80 172 72 170 68 160 Z" fill="url(#gb8763a)" /><path d="M76 132 C74 146 74 158 78 168" fill="none" stroke-width="2.6"/><ellipse cx="116" cy="168" rx="22" ry="20" fill="url(#gfbe7c2)" stroke="none"/><path d="M138 150 C148 150 156 146 162 140" fill="none" stroke="#4a2410" stroke-width="13"/><path d="M138 150 C148 150 156 146 162 140" fill="none" stroke="#e0a456" stroke-width="7"/><path d="M164.2 142.6 Q167.7 137.0 168.9 134.2 Q164.1 135.5 159.8 137.4 Z" fill="#ffffff" stroke-width="2.4"/><path d="M166.0 147.4 Q172.3 145.4 175.0 144.0 Q170.5 141.9 166.0 140.6 Z" fill="#ffffff" stroke-width="2.4"/><path d="M162.0 152.3 Q167.5 154.5 170.1 155.1 Q168.2 151.2 166.0 147.7 Z" fill="#ffffff" stroke-width="2.4"/><path d="M60 44 C48 26 46 6 52 -10 C66 2 74 22 76 40 Z" fill="url(#ge0a456)" /><path d="M60 32 C56 20 56 8 58 0 C64 10 68 22 68 32 Z" fill="url(#ge9bd82)" stroke="none"/><path d="M88 34 C84 14 88 -6 98 -18 C108 -4 110 16 106 34 Z" fill="url(#ge0a456)" /><path d="M26 86 C24 46 56 20 98 20 C134 20 160 40 170 66 C186 72 202 82 204 96 C204 110 190 118 170 120 C144 130 82 130 56 120 C36 112 26 100 26 86 Z" fill="url(#ge0a456)" /><path d="M34 70 C40 40 68 22 100 22 C126 22 148 34 160 54 C140 50 118 50 96 54 C74 58 54 64 34 70 Z" fill="url(#gb8763a)" /><path d="M60 36 C62 46 64 54 66 62 M88 26 C90 36 92 46 92 56 M120 28 C120 36 120 44 118 52" fill="none" stroke-width="2.6"/><path d="M100 90 C120 80 170 80 196 92 C206 98 206 108 196 114 C180 122 150 124 124 122 C104 120 96 110 100 90 Z" fill="url(#gfbe7c2)" /><ellipse cx="200" cy="98" rx="4" ry="3" fill="#4a2410" stroke="none"/><ellipse cx="100" cy="86" rx="13" ry="17" fill="#ffffff"/><ellipse cx="102.34" cy="87.7" rx="10.4" ry="13.600000000000001" fill="url(#i2fb4a4)" stroke="none"/><ellipse cx="103.38" cy="88.72" rx="5.46" ry="8.5" fill="#101014" stroke="none"/><ellipse cx="96.36" cy="80.9" rx="3.9" ry="3.9" fill="#ffffff" stroke="none"/><ellipse cx="105.46" cy="93.14" rx="1.8200000000000003" ry="1.8200000000000003" fill="#ffffff" stroke="none"/><ellipse cx="100" cy="86" rx="13" ry="17" fill="none"/><ellipse cx="140" cy="84" rx="9" ry="14" fill="#ffffff"/><ellipse cx="141.62" cy="85.4" rx="7.2" ry="11.200000000000001" fill="url(#i2fb4a4)" stroke="none"/><ellipse cx="142.34" cy="86.24" rx="3.78" ry="7" fill="#101014" stroke="none"/><ellipse cx="137.48" cy="79.8" rx="2.6999999999999997" ry="2.6999999999999997" fill="#ffffff" stroke="none"/><ellipse cx="143.78" cy="89.88" rx="1.2600000000000002" ry="1.2600000000000002" fill="#ffffff" stroke="none"/><ellipse cx="140" cy="84" rx="9" ry="14" fill="none"/><path d="M150 112 C160 118 176 118 186 112" fill="none" stroke-width="3.2"/><ellipse cx="82" cy="108" rx="9" ry="5" fill="#ff7a8a" stroke="none" opacity="0.45"/><ellipse cx="160" cy="104" rx="6" ry="4" fill="#ff7a8a" stroke="none" opacity="0.45"/>
</g>
</svg>
