<svg xmlns="http://www.w3.org/2000/svg" viewBox="0 -14 220 230" width="220" height="230">
<defs><linearGradient id="g4aa84a" x1="0" y1="0" x2="0.35" y2="1"><stop offset="0" stop-color="#8fc686"/><stop offset="1" stop-color="#4aa84a"/></linearGradient><linearGradient id="ge8384a" x1="0" y1="0" x2="0.35" y2="1"><stop offset="0" stop-color="#f18186"/><stop offset="1" stop-color="#e8384a"/></linearGradient><linearGradient id="g8a5a3a" x1="0" y1="0" x2="0.35" y2="1"><stop offset="0" stop-color="#b6967c"/><stop offset="1" stop-color="#8a5a3a"/></linearGradient></defs>
<g stroke="#4a2410" stroke-width="3.6" stroke-linejoin="round" stroke-linecap="round">
<path d="M20 80 C10 40 40 6 80 6 C96 -10 130 -10 144 6 C184 6 210 40 198 80 C214 100 200 130 176 130 L42 130 C16 130 4 100 20 80 Z" fill="url(#g4aa84a)" /><path d="M40 36 L34 48 M40 36 L46 48" fill="none" stroke-width="2"/><ellipse cx="34" cy="50" rx="7" ry="7" fill="url(#ge8384a)" /><ellipse cx="46" cy="50" rx="7" ry="7" fill="url(#ge8384a)" /><path d="M80 12 L74 24 M80 12 L86 24" fill="none" stroke-width="2"/><ellipse cx="74" cy="26" rx="7" ry="7" fill="url(#ge8384a)" /><ellipse cx="86" cy="26" rx="7" ry="7" fill="url(#ge8384a)" /><path d="M140 10 L134 22 M140 10 L146 22" fill="none" stroke-width="2"/><ellipse cx="134" cy="24" rx="7" ry="7" fill="url(#ge8384a)" /><ellipse cx="146" cy="24" rx="7" ry="7" fill="url(#ge8384a)" /><path d="M180 42 L174 54 M180 42 L186 54" fill="none" stroke-width="2"/><ellipse cx="174" cy="56" rx="7" ry="7" fill="url(#ge8384a)" /><ellipse cx="186" cy="56" rx="7" ry="7" fill="url(#ge8384a)" /><path d="M30 86 L24 98 M30 86 L36 98" fill="none" stroke-width="2"/><ellipse cx="24" cy="100" rx="7" ry="7" fill="url(#ge8384a)" /><ellipse cx="36" cy="100" rx="7" ry="7" fill="url(#ge8384a)" /><path d="M190 90 L184 102 M190 90 L196 102" fill="none" stroke-width="2"/><ellipse cx="184" cy="104" rx="7" ry="7" fill="url(#ge8384a)" /><ellipse cx="196" cy="104" rx="7" ry="7" fill="url(#ge8384a)" /><path d="M60 110 L54 204 L162 204 L156 110 Z" fill="url(#g8a5a3a)" /><path d="M54 204 L30 210 M162 204 L190 210 M90 204 L84 212 M130 204 L138 212" fill="none" stroke="#8a5a3a" stroke-width="8"/><path d="M156 140 C176 136 190 124 196 110" fill="none" stroke="#4a2410" stroke-width="14"/><path d="M156 140 C176 136 190 124 196 110" fill="none" stroke="#8a5a3a" stroke-width="8"/><path d="M196 110 L206 96 M196 110 L212 112" fill="none" stroke="#8a5a3a" stroke-width="5"/><path d="M70 130 C80 120 96 120 102 132 L96 140 C88 134 78 134 72 140 Z M114 132 C120 120 136 120 146 130 L144 140 C138 134 128 134 120 140 Z" fill="#3a1a10" /><ellipse cx="88" cy="134" rx="4" ry="4" fill="#ffd23a" stroke="none"/><ellipse cx="130" cy="134" rx="4" ry="4" fill="#ffd23a" stroke="none"/><path d="M84 168 C96 158 120 158 132 168 C124 180 92 180 84 168 Z" fill="#3a1a10" /><path d="M110 64 C116 56 128 56 134 62" fill="none" stroke-width="2"/>
</g>
</svg>
