<svg xmlns="http://www.w3.org/2000/svg" viewBox="0 -4 214 214">
<defs><linearGradient id="g3a6a4a" x1="0" y1="0" x2="0.35" y2="1"><stop offset="0" stop-color="#85a086"/><stop offset="1" stop-color="#3a6a4a"/></linearGradient><linearGradient id="gc8c8a0" x1="0" y1="0" x2="0.35" y2="1"><stop offset="0" stop-color="#dddabb"/><stop offset="1" stop-color="#c8c8a0"/></linearGradient><linearGradient id="ge8384a" x1="0" y1="0" x2="0.35" y2="1"><stop offset="0" stop-color="#f18186"/><stop offset="1" stop-color="#e8384a"/></linearGradient><radialGradient id="iffd23a" cx="0.45" cy="0.68" r="0.62"><stop offset="0" stop-color="#ffe79a"/><stop offset="0.6" stop-color="#ffd23a"/><stop offset="1" stop-color="#a67f3d"/></radialGradient></defs>
<g stroke="#4a2410" stroke-width="3.6" stroke-linejoin="round" stroke-linecap="round">
<path d="M76 170 C50 176 24 166 8 148 C30 150 50 150 72 150 Z" fill="url(#g3a6a4a)" /><ellipse cx="108" cy="160" rx="36" ry="32" fill="url(#g3a6a4a)" /><ellipse cx="112" cy="166" rx="22" ry="20" fill="url(#gc8c8a0)" stroke="none"/><path d="M88 186 L84 202 L106 202 L102 186 Z M118 186 L118 202 L140 202 L134 186 Z" fill="url(#g3a6a4a)" /><path d="M105.5 204.6 Q110.6 203.9 112.9 203.2 Q109.7 201.0 106.5 199.4 Z" fill="#ffffff" stroke-width="2.4"/><path d="M139.5 204.6 Q144.6 203.9 146.9 203.2 Q143.7 201.0 140.5 199.4 Z" fill="#ffffff" stroke-width="2.4"/><path d="M138 150 C150 148 156 144 160 140" fill="none" stroke="#4a2410" stroke-width="12"/><path d="M138 150 C150 148 156 144 160 140" fill="none" stroke="#3a6a4a" stroke-width="6"/><path d="M164.0 140.3 Q167.1 135.3 168.1 132.9 Q163.9 134.0 160.0 135.7 Z" fill="#ffffff" stroke-width="2.4"/><path d="M164.0 147.0 Q169.6 145.2 172.0 144.0 Q168.0 142.2 164.0 141.0 Z" fill="#ffffff" stroke-width="2.4"/><path d="M80 32 L74 12 L90 26 Z M102 26 L100 4 L114 22 Z" fill="url(#ge8384a)" /><path d="M40 88 C40 50 68 26 106 26 C134 26 156 40 166 60 C186 64 202 76 204 92 C204 110 186 120 164 122 C140 132 80 132 60 122 C46 114 40 102 40 88 Z" fill="url(#g3a6a4a)" /><path d="M100 98 C120 92 168 92 200 98 C198 110 184 118 164 120 C140 126 112 124 100 114 Z" fill="url(#gc8c8a0)" /><ellipse cx="114" cy="70" rx="11" ry="13" fill="#ffffff"/><ellipse cx="115.98" cy="71.3" rx="8.8" ry="10.4" fill="url(#iffd23a)" stroke="none"/><ellipse cx="116.86" cy="72.08" rx="3.3" ry="8.06" fill="#101014" stroke="none"/><ellipse cx="110.92" cy="66.1" rx="3.3" ry="3.3" fill="#ffffff" stroke="none"/><ellipse cx="118.62" cy="75.46" rx="1.54" ry="1.54" fill="#ffffff" stroke="none"/><ellipse cx="114" cy="70" rx="11" ry="13" fill="none"/><ellipse cx="148" cy="68" rx="9" ry="11" fill="#ffffff"/><ellipse cx="149.62" cy="69.1" rx="7.2" ry="8.8" fill="url(#iffd23a)" stroke="none"/><ellipse cx="150.34" cy="69.76" rx="2.6999999999999997" ry="6.82" fill="#101014" stroke="none"/><ellipse cx="145.48" cy="64.7" rx="2.6999999999999997" ry="2.6999999999999997" fill="#ffffff" stroke="none"/><ellipse cx="151.78" cy="72.62" rx="1.2600000000000002" ry="1.2600000000000002" fill="#ffffff" stroke="none"/><ellipse cx="148" cy="68" rx="9" ry="11" fill="none"/><path d="M103 48 L125 56" fill="none" stroke-width="4.4"/><path d="M140 54 L158 48" fill="none" stroke-width="4.4"/><path d="M120 100 l4 8 l4 -8 M150 100 l4 8 l4 -8 M178 100 l4 8 l4 -8" fill="#fff" stroke-width="1.8"/><ellipse cx="198" cy="86" rx="3.4" ry="2.6" fill="#4a2410" stroke="none"/>
</g>
</svg>
