<svg xmlns="http://www.w3.org/2000/svg" viewBox="0 -6 220 214">
<defs><linearGradient id="g4a8ae6" x1="0" y1="0" x2="0.35" y2="1"><stop offset="0" stop-color="#8fb4e7"/><stop offset="1" stop-color="#4a8ae6"/></linearGradient><linearGradient id="ge7bf57" x1="0" y1="0" x2="0.35" y2="1"><stop offset="0" stop-color="#f0d58e"/><stop offset="1" stop-color="#e7bf57"/></linearGradient><linearGradient id="gf4f8ff" x1="0" y1="0" x2="0.35" y2="1"><stop offset="0" stop-color="#f8f8f6"/><stop offset="1" stop-color="#f4f8ff"/></linearGradient><linearGradient id="gffd65a" x1="0" y1="0" x2="0.35" y2="1"><stop offset="0" stop-color="#ffe390"/><stop offset="1" stop-color="#ffd65a"/></linearGradient><linearGradient id="g2a4ea8" x1="0" y1="0" x2="0.35" y2="1"><stop offset="0" stop-color="#7b8fc0"/><stop offset="1" stop-color="#2a4ea8"/></linearGradient><linearGradient id="gfff0c8" x1="0" y1="0" x2="0.35" y2="1"><stop offset="0" stop-color="#fff3d4"/><stop offset="1" stop-color="#fff0c8"/></linearGradient><radialGradient id="ie2402e" cx="0.45" cy="0.68" r="0.62"><stop offset="0" stop-color="#f2a594"/><stop offset="0.6" stop-color="#e2402e"/><stop offset="1" stop-color="#962f36"/></radialGradient></defs>
<g stroke="#4a2410" stroke-width="3.6" stroke-linejoin="round" stroke-linecap="round">
<path d="M72 168 C48 168 26 158 18 140 C34 146 52 148 72 150 Z" fill="url(#g4a8ae6)" /><path d="M30 148 l8 -4 M44 151 l6 -6" fill="none" stroke="#2a4ea8" stroke-width="4"/><path d="M116 186 C116 178 128 174 140 176 C152 178 156 186 154 194 C152 200 144 202 134 202 L124 202 C118 202 116 196 116 186 Z" fill="url(#ge7bf57)" /><path d="M148.8 197.2 Q155.5 197.4 158.5 197.1 Q154.9 193.6 151.2 190.8 Z" fill="#ffffff" stroke-width="2.4"/><path d="M143.7 202.0 Q148.7 205.1 151.1 206.1 Q150.0 201.9 148.3 198.0 Z" fill="#ffffff" stroke-width="2.4"/><ellipse cx="104" cy="158" rx="36" ry="32" fill="url(#g4a8ae6)" /><path d="M104 132 C126 134 138 150 136 168 C134 182 122 190 108 190 C98 190 92 180 94 166 C96 150 96 138 104 132 Z" fill="url(#gf4f8ff)" stroke-width="3"/><path d="M72 150 l10 4 M70 164 l10 0 M74 178 l9 -4" fill="none" stroke="#2a4ea8" stroke-width="4"/><path d="M60 186 C60 176 72 172 86 174 C100 176 106 184 104 194 C102 202 94 204 82 204 L70 204 C62 204 60 196 60 186 Z" fill="url(#gffd65a)" /><path d="M96.6 201.1 Q103.1 201.9 106.2 201.8 Q102.9 198.0 99.4 194.9 Z" fill="#ffffff" stroke-width="2.4"/><path d="M89.4 204.5 Q93.7 208.5 96.0 209.9 Q95.6 205.6 94.6 201.5 Z" fill="#ffffff" stroke-width="2.4"/><path d="M126 148 C138 146 148 140 154 132 C162 132 166 140 162 146 C156 154 144 158 130 160 Z" fill="url(#gffd65a)" /><path d="M161.9 137.3 Q166.8 131.8 168.7 129.0 Q163.2 129.5 158.1 130.7 Z" fill="#ffffff" stroke-width="2.4"/><path d="M166.0 145.8 Q173.0 143.5 176.0 142.0 Q171.0 139.7 166.0 138.2 Z" fill="#ffffff" stroke-width="2.4"/><path d="M157.8 152.6 Q163.9 155.1 166.9 155.8 Q164.8 151.3 162.2 147.4 Z" fill="#ffffff" stroke-width="2.4"/><path d="M78 150 C66 148 58 142 54 134 C46 134 44 142 48 148 C54 156 64 160 78 162 Z" fill="url(#gffd65a)" /><path d="M42 40 L50 4 L76 28 Z" fill="url(#g4a8ae6)" /><path d="M50 14 L54 2 L70 24 Z" fill="url(#g2a4ea8)" stroke="none"/><path d="M96 22 L118 -2 L126 30 Z" fill="url(#g4a8ae6)" /><path d="M26 84 C24 44 56 16 100 16 C142 16 170 38 178 64 C186 92 168 122 136 128 C100 134 60 130 40 116 C30 108 26 98 26 84 Z" fill="url(#g4a8ae6)" /><path d="M40 70 C52 64 62 66 70 74 M48 98 C58 94 66 96 72 104 M136 26 C146 34 150 44 150 52" fill="none" stroke="#2a4ea8" stroke-width="5"/><path d="M78 74 C96 60 150 58 182 74 C200 82 208 94 204 106 C200 118 184 124 164 126 C130 132 96 130 82 118 C72 108 70 86 78 74 Z" fill="url(#gffd65a)" /><path d="M84 116 C110 128 160 128 200 110 C192 122 172 128 150 130 C120 132 96 128 84 116 Z" fill="#dcb455" stroke="none" opacity="0.55"/><path d="M112 62 C108 46 116 30 132 22 C130 36 130 48 126 60 Z" fill="url(#gfff0c8)" /><path d="M46 46 C60 32 78 26 96 24" fill="none" stroke="#fffbe8" stroke-width="6" opacity="0.5"/><ellipse cx="110" cy="90" rx="15" ry="19" fill="#ffffff"/><ellipse cx="112.7" cy="91.9" rx="12" ry="15.200000000000001" fill="url(#ie2402e)" stroke="none"/><ellipse cx="113.9" cy="93.04" rx="6.3" ry="9.5" fill="#101014" stroke="none"/><ellipse cx="105.8" cy="84.3" rx="4.5" ry="4.5" fill="#ffffff" stroke="none"/><ellipse cx="116.3" cy="97.98" rx="2.1" ry="2.1" fill="#ffffff" stroke="none"/><ellipse cx="110" cy="90" rx="15" ry="19" fill="none"/><ellipse cx="152" cy="86" rx="10" ry="15" fill="#ffffff"/><ellipse cx="153.8" cy="87.5" rx="8" ry="12" fill="url(#ie2402e)" stroke="none"/><ellipse cx="154.6" cy="88.4" rx="4.2" ry="7.5" fill="#101014" stroke="none"/><ellipse cx="149.2" cy="81.5" rx="3" ry="3" fill="#ffffff" stroke="none"/><ellipse cx="156.2" cy="92.3" rx="1.4000000000000001" ry="1.4000000000000001" fill="#ffffff" stroke="none"/><ellipse cx="152" cy="86" rx="10" ry="15" fill="none"/><ellipse cx="198" cy="92" rx="2.4" ry="1.8" fill="#4a2410" stroke="none"/><path d="M150 112 C162 118 180 116 194 108" fill="none" stroke-width="3.4"/><path d="M184 112 l3 6 l3 -7 Z" fill="#fff" stroke-width="1.8"/><ellipse cx="92" cy="112" rx="9" ry="5" fill="#ff7a8a" stroke="none" opacity="0.45"/><ellipse cx="170" cy="108" rx="7" ry="4" fill="#ff7a8a" stroke="none" opacity="0.45"/>
</g>
</svg>
