<svg xmlns="http://www.w3.org/2000/svg" viewBox="-10 -14 236 220">
<defs><linearGradient id="g7ab4e8" x1="0" y1="0" x2="0.35" y2="1"><stop offset="0" stop-color="#adcee8"/><stop offset="1" stop-color="#7ab4e8"/></linearGradient><linearGradient id="gd8ecfa" x1="0" y1="0" x2="0.35" y2="1"><stop offset="0" stop-color="#e7f1f3"/><stop offset="1" stop-color="#d8ecfa"/></linearGradient><linearGradient id="gf4f6fb" x1="0" y1="0" x2="0.35" y2="1"><stop offset="0" stop-color="#f8f7f4"/><stop offset="1" stop-color="#f4f6fb"/></linearGradient><radialGradient id="ie8384a" cx="0.45" cy="0.68" r="0.62"><stop offset="0" stop-color="#f5a2a1"/><stop offset="0.6" stop-color="#e8384a"/><stop offset="1" stop-color="#9a2b46"/></radialGradient></defs>
<g stroke="#4a2410" stroke-width="3.6" stroke-linejoin="round" stroke-linecap="round">
<path d="M80 118 C52 72 22 50 -6 44 C8 70 6 86 20 96 C4 102 0 110 -4 120 C14 118 24 124 30 132 C16 138 12 144 8 152 C34 148 56 144 78 142 Z" fill="url(#g7ab4e8)" /><path d="M136 118 C164 72 194 50 222 44 C208 70 210 86 196 96 C212 102 216 110 220 120 C202 118 192 124 186 132 C200 138 204 144 208 152 C182 148 160 144 138 142 Z" fill="url(#g7ab4e8)" /><ellipse cx="108" cy="162" rx="32" ry="30" fill="url(#gd8ecfa)" /><path d="M90 186 L84 204 L106 204 Z M120 186 L118 204 L140 204 Z" fill="url(#gd8ecfa)" /><path d="M138 150 C160 150 174 160 182 176" fill="none" stroke="#4a2410" stroke-width="13"/><path d="M138 150 C160 150 174 160 182 176" fill="none" stroke="#d8ecfa" stroke-width="7"/><path d="M180.8 180.7 Q187.7 185.0 191.1 186.4 Q189.5 180.6 187.2 175.3 Z" fill="#9ad8ff" stroke-width="2.4"/><path d="M176.2 182.0 Q178.5 189.0 180.0 192.0 Q182.3 187.0 183.8 182.0 Z" fill="#9ad8ff" stroke-width="2.4"/><path d="M78 150 C62 156 54 166 50 180" fill="none" stroke="#4a2410" stroke-width="13"/><path d="M78 150 C62 156 54 166 50 180" fill="none" stroke="#d8ecfa" stroke-width="7"/><path d="M58 58 C40 42 34 16 44 -6 C54 14 64 28 76 38 Z M158 58 C176 42 182 16 172 -6 C162 14 152 28 140 38 Z" fill="url(#gf4f6fb)" /><ellipse cx="108" cy="84" rx="60" ry="54" fill="url(#gd8ecfa)" /><path d="M60 70 C80 62 136 62 156 70" fill="none" stroke="#7ab4e8" stroke-width="4"/><ellipse cx="92" cy="90" rx="10" ry="11" fill="#ffffff"/><ellipse cx="93.8" cy="91.1" rx="8" ry="8.8" fill="url(#ie8384a)" stroke="none"/><ellipse cx="94.6" cy="91.76" rx="2.4" ry="6.82" fill="#101014" stroke="none"/><ellipse cx="89.2" cy="86.7" rx="3" ry="3" fill="#ffffff" stroke="none"/><ellipse cx="96.2" cy="94.62" rx="1.4000000000000001" ry="1.4000000000000001" fill="#ffffff" stroke="none"/><ellipse cx="92" cy="90" rx="10" ry="11" fill="none"/><ellipse cx="126" cy="90" rx="8.5" ry="10" fill="#ffffff"/><ellipse cx="127.53" cy="91" rx="6.800000000000001" ry="8" fill="url(#ie8384a)" stroke="none"/><ellipse cx="128.21" cy="91.6" rx="2.04" ry="6.2" fill="#101014" stroke="none"/><ellipse cx="123.62" cy="87" rx="2.55" ry="2.55" fill="#ffffff" stroke="none"/><ellipse cx="129.57" cy="94.2" rx="1.1900000000000002" ry="1.1900000000000002" fill="#ffffff" stroke="none"/><ellipse cx="126" cy="90" rx="8.5" ry="10" fill="none"/><path d="M80 70 L104 78 M116 78 L138 70" fill="none" stroke-width="4.6"/><path d="M97 114 C103.5 123 116.5 123 123 112" fill="none" stroke-width="3.2"/><path d="M101.33333333333333 117 l3 7 l3 -6 Z M114.33333333333333 118 l3 7 l3 -7 Z" fill="#fff" stroke-width="1.8"/><path d="M30.0 170.0L32.0 176.5L38.7 175.0L34.0 180.0L38.7 185.0L32.0 183.5L30.0 190.0L28.0 183.5L21.3 185.0L26.0 180.0L21.3 175.0L28.0 176.5Z" fill="#f4f6fb" stroke-width="2"/><path d="M200.0 180.0L202.0 186.5L208.7 185.0L204.0 190.0L208.7 195.0L202.0 193.5L200.0 200.0L198.0 193.5L191.3 195.0L196.0 190.0L191.3 185.0L198.0 186.5Z" fill="#f4f6fb" stroke-width="2"/>
</g>
</svg>
