<svg xmlns="http://www.w3.org/2000/svg" viewBox="18 -10 190 220">
<defs><linearGradient id="gfff4d8" x1="0" y1="0" x2="0.35" y2="1"><stop offset="0" stop-color="#fff6de"/><stop offset="1" stop-color="#fff4d8"/></linearGradient><linearGradient id="g5aa858" x1="0" y1="0" x2="0.35" y2="1"><stop offset="0" stop-color="#99c68f"/><stop offset="1" stop-color="#5aa858"/></linearGradient><linearGradient id="ga8784a" x1="0" y1="0" x2="0.35" y2="1"><stop offset="0" stop-color="#c9a986"/><stop offset="1" stop-color="#a8784a"/></linearGradient><linearGradient id="gf4f6fb" x1="0" y1="0" x2="0.35" y2="1"><stop offset="0" stop-color="#f8f7f4"/><stop offset="1" stop-color="#f4f6fb"/></linearGradient><radialGradient id="iffd23a" cx="0.45" cy="0.68" r="0.62"><stop offset="0" stop-color="#ffe79a"/><stop offset="0.6" stop-color="#ffd23a"/><stop offset="1" stop-color="#a67f3d"/></radialGradient></defs>
<g stroke="#4a2410" stroke-width="3.6" stroke-linejoin="round" stroke-linecap="round">
<path d="M168 30 C176 22 190 24 192 36 C190 44 184 48 178 52 L160 150 L148 146 L164 52 C158 46 160 36 168 30 Z" fill="url(#gfff4d8)" /><ellipse cx="108" cy="162" rx="36" ry="32" fill="url(#g5aa858)" /><path d="M76 170 C92 178 124 178 140 170 L138 190 L78 190 Z" fill="url(#ga8784a)" /><path d="M90 190 L84 204 L106 204 Z M120 190 L118 204 L140 204 Z" fill="url(#g5aa858)" /><path d="M140 150 C150 148 156 146 160 144" fill="none" stroke="#4a2410" stroke-width="14"/><path d="M140 150 C150 148 156 146 160 144" fill="none" stroke="#5aa858" stroke-width="8"/><ellipse cx="158" cy="146" rx="10" ry="9" fill="url(#g5aa858)" /><path d="M40 70 C30 40 50 14 80 8 C90 -4 126 -6 140 6 C170 10 186 40 176 70 Z" fill="url(#gf4f6fb)" /><ellipse cx="108" cy="88" rx="64" ry="54" fill="url(#g5aa858)" /><path d="M88 36 C84 22 88 10 96 4 L100 34 Z" fill="url(#gfff4d8)" /><ellipse cx="94" cy="84" rx="11" ry="12" fill="#ffffff"/><ellipse cx="95.98" cy="85.2" rx="8.8" ry="9.600000000000001" fill="url(#iffd23a)" stroke="none"/><ellipse cx="96.86" cy="85.92" rx="3.3" ry="6" fill="#101014" stroke="none"/><ellipse cx="90.92" cy="80.4" rx="3.3" ry="3.3" fill="#ffffff" stroke="none"/><ellipse cx="98.62" cy="89.04" rx="1.54" ry="1.54" fill="#ffffff" stroke="none"/><ellipse cx="94" cy="84" rx="11" ry="12" fill="none"/><ellipse cx="130" cy="84" rx="11" ry="12" fill="#ffffff"/><ellipse cx="131.98" cy="85.2" rx="8.8" ry="9.600000000000001" fill="url(#iffd23a)" stroke="none"/><ellipse cx="132.86" cy="85.92" rx="3.3" ry="6" fill="#101014" stroke="none"/><ellipse cx="126.92" cy="80.4" rx="3.3" ry="3.3" fill="#ffffff" stroke="none"/><ellipse cx="134.62" cy="89.04" rx="1.54" ry="1.54" fill="#ffffff" stroke="none"/><ellipse cx="130" cy="84" rx="11" ry="12" fill="none"/><path d="M83 62 L105 70" fill="none" stroke-width="4.4"/><path d="M120 70 L142 62" fill="none" stroke-width="4.4"/><path d="M90 118 C100 108 126 108 138 116 L134 126 L94 126 Z" fill="#5a1a2a" /><path d="M96 118 l4 -10 l4 10 Z M126 118 l4 -10 l4 10 Z" fill="#fff" stroke-width="1.8"/><ellipse cx="74" cy="104" rx="9" ry="5" fill="#ff7a8a" stroke="none" opacity="0.45"/><ellipse cx="150" cy="104" rx="9" ry="5" fill="#ff7a8a" stroke="none" opacity="0.45"/>
</g>
</svg>
