<svg xmlns="http://www.w3.org/2000/svg" viewBox="-14 -24 240 230">
<defs><linearGradient id="g3a82e0" x1="0" y1="0" x2="0.35" y2="1"><stop offset="0" stop-color="#85afe3"/><stop offset="1" stop-color="#3a82e0"/></linearGradient><linearGradient id="ge8384a" x1="0" y1="0" x2="0.35" y2="1"><stop offset="0" stop-color="#f18186"/><stop offset="1" stop-color="#e8384a"/></linearGradient><linearGradient id="g5ab858" x1="0" y1="0" x2="0.35" y2="1"><stop offset="0" stop-color="#99d08f"/><stop offset="1" stop-color="#5ab858"/></linearGradient><linearGradient id="gffd23a" x1="0" y1="0" x2="0.35" y2="1"><stop offset="0" stop-color="#ffe07c"/><stop offset="1" stop-color="#ffd23a"/></linearGradient><linearGradient id="gf4ecdc" x1="0" y1="0" x2="0.35" y2="1"><stop offset="0" stop-color="#f8f1e1"/><stop offset="1" stop-color="#f4ecdc"/></linearGradient><radialGradient id="iff7a1a" cx="0.45" cy="0.68" r="0.62"><stop offset="0" stop-color="#ffbf8b"/><stop offset="0.6" stop-color="#ff7a1a"/><stop offset="1" stop-color="#a64f2b"/></radialGradient></defs>
<g stroke="#4a2410" stroke-width="3.6" stroke-linejoin="round" stroke-linecap="round">
<path d="M80 124 C50 90 20 76 -6 76 C6 96 14 110 26 120 C10 124 0 132 -6 144 C20 142 50 144 76 150 Z" fill="url(#g3a82e0)" /><path d="M136 124 C166 90 196 76 222 76 C210 96 202 110 190 120 C206 124 216 132 222 144 C196 142 166 144 140 150 Z" fill="url(#g3a82e0)" /><path d="M84 170 C60 190 34 200 12 196 C30 186 42 176 52 164 Z" fill="url(#ge8384a)" /><ellipse cx="108" cy="160" rx="38" ry="32" fill="url(#g5ab858)" /><ellipse cx="112" cy="166" rx="22" ry="20" fill="url(#gffd23a)" stroke="none"/><path d="M94 186 L90 202 M120 186 L124 202" fill="none" stroke="#4a2410" stroke-width="9"/><path d="M94 186 L90 202 M120 186 L124 202" fill="none" stroke="#7a7a8a" stroke-width="4"/><path d="M89.0 199.1 Q84.3 202.8 82.5 204.7 Q86.9 205.1 91.0 204.9 Z" fill="#7a7a8a" stroke-width="2.4"/><path d="M123.0 204.9 Q128.8 205.1 131.5 204.7 Q128.4 201.7 125.0 199.1 Z" fill="#7a7a8a" stroke-width="2.4"/><path d="M68 40 C56 14 66 -10 84 -18 C84 2 92 14 102 20 C100 2 112 -14 130 -16 C124 2 124 16 130 28 Z" fill="url(#gffd23a)" /><path d="M86 28 C82 10 92 -2 104 -4 C100 10 102 20 108 26 Z" fill="url(#ge8384a)" stroke="none"/><ellipse cx="106" cy="80" rx="64" ry="56" fill="url(#g5ab858)" /><path d="M150 70 C176 60 206 74 212 100 C204 116 186 112 176 104 C168 116 156 116 148 108 Z" fill="url(#gf4ecdc)" /><path d="M176 104 C182 96 190 94 198 98" fill="none" stroke-width="2.6"/><ellipse cx="110" cy="80" rx="10" ry="11" fill="#ffffff"/><ellipse cx="111.8" cy="81.1" rx="8" ry="8.8" fill="url(#iff7a1a)" stroke="none"/><ellipse cx="112.6" cy="81.76" rx="2.4" ry="6.82" fill="#101014" stroke="none"/><ellipse cx="107.2" cy="76.7" rx="3" ry="3" fill="#ffffff" stroke="none"/><ellipse cx="114.2" cy="84.62" rx="1.4000000000000001" ry="1.4000000000000001" fill="#ffffff" stroke="none"/><ellipse cx="110" cy="80" rx="10" ry="11" fill="none"/><ellipse cx="140" cy="80" rx="8.5" ry="10" fill="#ffffff"/><ellipse cx="141.53" cy="81" rx="6.800000000000001" ry="8" fill="url(#iff7a1a)" stroke="none"/><ellipse cx="142.21" cy="81.6" rx="2.04" ry="6.2" fill="#101014" stroke="none"/><ellipse cx="137.62" cy="77" rx="2.55" ry="2.55" fill="#ffffff" stroke="none"/><ellipse cx="143.57" cy="84.2" rx="1.1900000000000002" ry="1.1900000000000002" fill="#ffffff" stroke="none"/><ellipse cx="140" cy="80" rx="8.5" ry="10" fill="none"/><path d="M98 60 L122 68 M130 68 L152 60" fill="none" stroke-width="4.6"/>
</g>
</svg>
