<svg xmlns="http://www.w3.org/2000/svg" viewBox="26 -10 168 220" width="168" height="220">
<defs><linearGradient id="g3a3448" x1="0" y1="0" x2="0.35" y2="1"><stop offset="0" stop-color="#857e85"/><stop offset="1" stop-color="#3a3448"/></linearGradient><linearGradient id="gf4f6fb" x1="0" y1="0" x2="0.35" y2="1"><stop offset="0" stop-color="#f8f7f4"/><stop offset="1" stop-color="#f4f6fb"/></linearGradient><linearGradient id="g5ab858" x1="0" y1="0" x2="0.35" y2="1"><stop offset="0" stop-color="#99d08f"/><stop offset="1" stop-color="#5ab858"/></linearGradient><linearGradient id="gff9a3a" x1="0" y1="0" x2="0.35" y2="1"><stop offset="0" stop-color="#ffbe7c"/><stop offset="1" stop-color="#ff9a3a"/></linearGradient></defs>
<g stroke="#4a2410" stroke-width="3.6" stroke-linejoin="round" stroke-linecap="round">
<ellipse cx="108" cy="166" rx="26" ry="26" fill="url(#g3a3448)" /><path d="M92 188 L86 204 L106 204 Z M118 188 L116 204 L136 204 Z" fill="url(#g3a3448)" /><path d="M130 158 C146 152 156 146 162 138" fill="none" stroke="#4a2410" stroke-width="11"/><path d="M130 158 C146 152 156 146 162 138" fill="none" stroke="#3a3448" stroke-width="5"/><ellipse cx="166" cy="134" rx="10" ry="9" fill="url(#gf4f6fb)" /><path d="M86 158 C70 162 62 170 58 178" fill="none" stroke="#4a2410" stroke-width="11"/><path d="M86 158 C70 162 62 170 58 178" fill="none" stroke="#3a3448" stroke-width="5"/><ellipse cx="56" cy="182" rx="10" ry="9" fill="url(#gf4f6fb)" /><path d="M104 30 C100 14 108 0 122 -4 C118 10 116 20 116 30 Z" fill="url(#g5ab858)" /><path d="M120 16 C136 2 156 6 160 16 C146 20 132 22 120 16 Z" fill="url(#g5ab858)" /><ellipse cx="108" cy="82" rx="70" ry="58" fill="url(#gff9a3a)" /><path d="M80 30 C66 60 66 110 80 136 M108 26 L108 140 M136 30 C150 60 150 110 136 136" fill="none" stroke="#ce7a3c" stroke-width="3"/><path d="M72 72 L92 62 L96 86 Z M124 62 L144 72 L120 86 Z" fill="#3a1a10" /><path d="M70 104 L80 98 L88 108 L98 98 L108 108 L118 98 L128 108 L138 98 L146 104 C140 120 124 126 108 126 C92 126 76 120 70 104 Z" fill="#3a1a10" /><ellipse cx="84" cy="76" rx="3" ry="3" fill="#ffd23a" stroke="none"/><ellipse cx="132" cy="76" rx="3" ry="3" fill="#ffd23a" stroke="none"/>
</g>
</svg>
