<svg xmlns="http://www.w3.org/2000/svg" viewBox="0 -14 226 226" width="226" height="226">
<defs><linearGradient id="mc8d0dc" x1="0" y1="0" x2="0.4" y2="1"><stop offset="0" stop-color="#efece4"/><stop offset="0.4" stop-color="#d0d6de"/><stop offset="1" stop-color="#acacbd"/></linearGradient><linearGradient id="gf4f6fb" x1="0" y1="0" x2="0.35" y2="1"><stop offset="0" stop-color="#f8f7f4"/><stop offset="1" stop-color="#f4f6fb"/></linearGradient><linearGradient id="g3a5ab8" x1="0" y1="0" x2="0.35" y2="1"><stop offset="0" stop-color="#8596ca"/><stop offset="1" stop-color="#3a5ab8"/></linearGradient><linearGradient id="gfff0c8" x1="0" y1="0" x2="0.35" y2="1"><stop offset="0" stop-color="#fff3d4"/><stop offset="1" stop-color="#fff0c8"/></linearGradient><linearGradient id="me8c040" x1="0" y1="0" x2="0.4" y2="1"><stop offset="0" stop-color="#f8e7b6"/><stop offset="0.4" stop-color="#ebc859"/><stop offset="1" stop-color="#c59f40"/></linearGradient><linearGradient id="gd8dce8" x1="0" y1="0" x2="0.35" y2="1"><stop offset="0" stop-color="#e7e7e8"/><stop offset="1" stop-color="#d8dce8"/></linearGradient><radialGradient id="i3a82e0" cx="0.45" cy="0.68" r="0.62"><stop offset="0" stop-color="#a6c3e4"/><stop offset="0.6" stop-color="#3a82e0"/><stop offset="1" stop-color="#3a5398"/></radialGradient></defs>
<g stroke="#4a2410" stroke-width="3.6" stroke-linejoin="round" stroke-linecap="round">
<path d="M168 130 C188 120 196 104 196 92" fill="none" stroke="#6a6a7a" stroke-width="3" stroke-dasharray="5 3"/><path d="M198.0 62.0L202.6 70.9L212.1 67.9L209.1 77.4L218.0 82.0L209.1 86.6L212.1 96.1L202.6 93.1L198.0 102.0L193.4 93.1L183.9 96.1L186.9 86.6L178.0 82.0L186.9 77.4L183.9 67.9L193.4 70.9Z" fill="url(#mc8d0dc)" /><ellipse cx="198" cy="82" rx="10" ry="10" fill="url(#mc8d0dc)" /><ellipse cx="108" cy="162" rx="44" ry="36" fill="url(#gf4f6fb)" /><path d="M76 150 C92 140 126 140 142 150 L140 180 C124 188 94 188 78 180 Z" fill="url(#g3a5ab8)" /><ellipse cx="84" cy="198" rx="18" ry="9" fill="url(#gf4f6fb)" /><ellipse cx="134" cy="198" rx="18" ry="9" fill="url(#gf4f6fb)" /><path d="M146 150 C156 144 164 136 168 130" fill="none" stroke="#4a2410" stroke-width="16"/><path d="M146 150 C156 144 164 136 168 130" fill="none" stroke="#f4f6fb" stroke-width="10"/><path d="M70 150 C60 144 54 136 50 128" fill="none" stroke="#4a2410" stroke-width="16"/><path d="M70 150 C60 144 54 136 50 128" fill="none" stroke="#f4f6fb" stroke-width="10"/><path d="M54 50 C30 40 18 18 20 -6 C36 6 50 24 62 34 Z M160 50 C184 40 196 18 194 -6 C178 6 164 24 152 34 Z" fill="url(#gfff0c8)" /><ellipse cx="108" cy="86" rx="70" ry="60" fill="url(#gf4f6fb)" /><path d="M46 64 C52 32 80 18 108 18 C136 18 164 32 170 64 C150 56 130 52 108 52 C86 52 66 56 46 64 Z" fill="url(#me8c040)" /><path d="M100 18 L108 4 L116 18" fill="url(#me8c040)" /><path d="M60 96 C70 128 146 128 156 96 C150 116 134 132 108 132 C82 132 66 116 60 96 Z" fill="url(#gd8dce8)" stroke="none"/><ellipse cx="90" cy="86" rx="11" ry="13" fill="#ffffff"/><ellipse cx="91.98" cy="87.3" rx="8.8" ry="10.4" fill="url(#i3a82e0)" stroke="none"/><ellipse cx="92.86" cy="88.08" rx="4.62" ry="6.5" fill="#101014" stroke="none"/><ellipse cx="86.92" cy="82.1" rx="3.3" ry="3.3" fill="#ffffff" stroke="none"/><ellipse cx="94.62" cy="91.46" rx="1.54" ry="1.54" fill="#ffffff" stroke="none"/><ellipse cx="90" cy="86" rx="11" ry="13" fill="none"/><path d="M78.45 71.7 L99.9 76.25" fill="none" stroke-width="4"/><ellipse cx="126" cy="86" rx="11" ry="13" fill="#ffffff"/><ellipse cx="127.98" cy="87.3" rx="8.8" ry="10.4" fill="url(#i3a82e0)" stroke="none"/><ellipse cx="128.86" cy="88.08" rx="4.62" ry="6.5" fill="#101014" stroke="none"/><ellipse cx="122.92" cy="82.1" rx="3.3" ry="3.3" fill="#ffffff" stroke="none"/><ellipse cx="130.62" cy="91.46" rx="1.54" ry="1.54" fill="#ffffff" stroke="none"/><ellipse cx="126" cy="86" rx="11" ry="13" fill="none"/><path d="M128 76 L148 72" fill="none" stroke-width="4"/><path d="M92 112 C100 120 116 120 124 112" fill="none" stroke-width="3.4"/><path d="M96 114 l2 -8 l3 8 Z M118 114 l2 -8 l3 8 Z" fill="#fff" stroke-width="1.8"/><ellipse cx="70" cy="104" rx="9" ry="5" fill="#ff7a8a" stroke="none" opacity="0.45"/><ellipse cx="146" cy="104" rx="9" ry="5" fill="#ff7a8a" stroke="none" opacity="0.45"/>
</g>
</svg>
